<svg width="37" height="23" viewBox="0 0 37 23" fill="none" xmlns="http://www.w3.org/2000/svg">
<path d="M34.1391 0.520264L34.5178 0.520943C34.6202 0.521623 34.7228 0.522755 34.8259 0.525473C35.0055 0.530456 35.2152 0.540196 35.4109 0.575303C35.5808 0.605881 35.7235 0.652313 35.8603 0.722076C36.1341 0.861273 36.3565 1.08393 36.4954 1.35786C36.5647 1.49376 36.6109 1.63555 36.6415 1.80701C36.6764 2.00044 36.6861 2.21086 36.6909 2.39138C36.6938 2.49331 36.6952 2.59523 36.6954 2.69942C36.6965 2.82559 36.6965 2.95152 36.6965 3.07791V20.364C36.6965 20.4904 36.6965 20.6163 36.6956 20.7449C36.6952 20.8469 36.6938 20.9488 36.6911 21.0507C36.6861 21.231 36.6764 21.4414 36.641 21.6371C36.6154 21.7928 36.5661 21.9436 36.4949 22.0845C36.3557 22.3585 36.133 22.5811 35.8589 22.7203C35.723 22.7896 35.5808 22.836 35.4125 22.8663C35.213 22.9019 34.9942 22.9116 34.8295 22.9162C34.726 22.9184 34.6229 22.92 34.5171 22.9205C34.3914 22.9214 34.265 22.9214 34.1391 22.9214H3.35834C3.23377 22.9214 3.10919 22.9214 2.98235 22.9205C2.88042 22.92 2.77849 22.9187 2.67658 22.9164C2.50806 22.9119 2.28926 22.9019 2.0913 22.8666C1.93478 22.8405 1.78312 22.7909 1.64147 22.7193C1.5056 22.6503 1.38158 22.5601 1.27409 22.4521C1.16625 22.3444 1.07619 22.2204 1.00727 22.0845C0.936089 21.9428 0.886757 21.7913 0.860948 21.6349C0.825614 21.4394 0.815648 21.2299 0.811118 21.0509C0.808559 20.9487 0.807049 20.8464 0.806588 20.744L0.805908 20.4435V2.99863L0.806361 2.69852C0.806829 2.59605 0.808339 2.49359 0.810891 2.39116C0.815874 2.21177 0.825614 2.00226 0.861174 1.8052C0.887035 1.64911 0.936366 1.49783 1.00749 1.3565C1.07635 1.22106 1.16604 1.09739 1.27476 0.988893C1.38252 0.880968 1.50667 0.790764 1.6426 0.721623C1.78391 0.650632 1.93509 0.601307 2.09107 0.575303C2.287 0.540196 2.49696 0.530456 2.6768 0.525473C2.77918 0.522755 2.88179 0.521623 2.98349 0.520943L3.36333 0.520264H34.1391Z" fill="white"/>
</svg>
